name Walk9.mot
datacolumns 19
datarows 25
range 1.06100000 1.08500000
endheader

                time	   L_ground_force_vx	   L_ground_force_vy	   L_ground_force_vz	   L_ground_force_px	   L_ground_force_py	   L_ground_force_pz	   R_ground_force_vx	   R_ground_force_vy	   R_ground_force_vz	   R_ground_force_px	   R_ground_force_py	   R_ground_force_pz	   L_ground_torque_x	   L_ground_torque_y	   L_ground_torque_z	   R_ground_torque_x	   R_ground_torque_y	   R_ground_torque_z	
          1.06100000	          0.00000000	          0.00000000	          0.00000000	          0.00000000	          0.00000000	          0.00000000	          0.00000000	          0.00000000	          0.00000000	          0.00000000	          0.00000000	          0.00000000	          0.00000000	          0.00000000	          0.00000000	          0.00000000	          0.00000000	          0.00000000	
          1.06200000	          0.00000000	          0.00000000	          0.00000000	          0.00000000	          0.00000000	          0.00000000	          0.00000000	          0.00000000	          0.00000000	          0.00000000	          0.00000000	          0.00000000	          0.00000000	          0.00000000	          0.00000000	          0.00000000	          0.00000000	          0.00000000	
          1.06300000	          0.00000000	          0.00000000	          0.00000000	          0.00000000	          0.00000000	          0.00000000	          0.00000000	          0.00000000	          0.00000000	          0.00000000	          0.00000000	          0.00000000	          0.00000000	          0.00000000	          0.00000000	          0.00000000	          0.00000000	          0.00000000	
          1.06400000	          0.00000000	          0.00000000	          0.00000000	          0.00000000	          0.00000000	          0.00000000	          0.00000000	          0.00000000	          0.00000000	          0.00000000	          0.00000000	          0.00000000	          0.00000000	          0.00000000	          0.00000000	          0.00000000	          0.00000000	          0.00000000	
          1.06500000	          0.00000000	          0.00000000	          0.00000000	          0.00000000	          0.00000000	          0.00000000	          0.00000000	          0.00000000	          0.00000000	          0.00000000	          0.00000000	          0.00000000	          0.00000000	          0.00000000	          0.00000000	          0.00000000	          0.00000000	          0.00000000	
          1.06600000	          0.00000000	          0.00000000	          0.00000000	          0.00000000	          0.00000000	          0.00000000	         -3.81857343	          7.63220278	         -0.60678186	         -0.46260881	          0.00000000	         -0.05454140	          0.00000000	          0.00000000	          0.00000000	          0.00000000	         -0.04630558	          0.00000000	
          1.06700000	          0.00000000	          0.00000000	          0.00000000	          0.00000000	          0.00000000	          0.00000000	         -7.13113923	         16.26788876	         -1.01015018	         -0.46014991	          0.00000000	         -0.05122608	          0.00000000	          0.00000000	          0.00000000	          0.00000000	         -0.04132548	          0.00000000	
          1.06800000	          0.00000000	          0.00000000	          0.00000000	          0.00000000	          0.00000000	          0.00000000	        -11.16858539	         28.12518680	         -1.43641667	         -0.45885162	          0.00000000	         -0.04929652	          0.00000000	          0.00000000	          0.00000000	          0.00000000	         -0.01486604	          0.00000000	
          1.06900000	          0.00000000	          0.00000000	          0.00000000	          0.00000000	          0.00000000	          0.00000000	        -15.67194288	         43.33046834	         -1.83809115	         -0.45809269	          0.00000000	         -0.04804911	          0.00000000	          0.00000000	          0.00000000	          0.00000000	          0.03656311	          0.00000000	
          1.07000000	          0.00000000	          0.00000000	          0.00000000	          0.00000000	          0.00000000	          0.00000000	        -20.46348061	         62.19588167	         -2.19760532	         -0.45760091	          0.00000000	         -0.04727816	          0.00000000	          0.00000000	          0.00000000	          0.00000000	          0.10724121	          0.00000000	
          1.07100000	          0.00000000	          0.00000000	          0.00000000	          0.00000000	          0.00000000	          0.00000000	        -25.33692265	         84.84795608	         -2.52188089	         -0.45724395	          0.00000000	         -0.04682389	          0.00000000	          0.00000000	          0.00000000	          0.00000000	          0.18306240	          0.00000000	
          1.07200000	          0.00000000	          0.00000000	          0.00000000	          0.00000000	          0.00000000	          0.00000000	        -29.96274772	        110.79038978	         -2.84379728	         -0.45701016	          0.00000000	         -0.04658494	          0.00000000	          0.00000000	          0.00000000	          0.00000000	          0.24595239	          0.00000000	
          1.07300000	          0.00000000	          0.00000000	          0.00000000	          0.00000000	          0.00000000	          0.00000000	        -33.93090452	        138.74631587	         -3.23027626	         -0.45689250	          0.00000000	         -0.04649380	          0.00000000	          0.00000000	          0.00000000	          0.00000000	          0.28275941	          0.00000000	
          1.07400000	          0.00000000	          0.00000000	          0.00000000	          0.00000000	          0.00000000	          0.00000000	        -36.88782103	        166.86405562	         -3.78284710	         -0.45681222	          0.00000000	         -0.04645882	          0.00000000	          0.00000000	          0.00000000	          0.00000000	          0.29341788	          0.00000000	
          1.07500000	          0.00000000	          0.00000000	          0.00000000	          0.00000000	          0.00000000	          0.00000000	        -38.66020368	        193.15266418	         -4.61704558	         -0.45664379	          0.00000000	         -0.04638341	          0.00000000	          0.00000000	          0.00000000	          0.00000000	          0.28992023	          0.00000000	
          1.07600000	          0.00000000	          0.00000000	          0.00000000	          0.00000000	          0.00000000	          0.00000000	        -39.28831467	        215.88727569	         -5.82653481	         -0.45630053	          0.00000000	         -0.04621569	          0.00000000	          0.00000000	          0.00000000	          0.00000000	          0.28874026	          0.00000000	
          1.07700000	          0.00000000	          0.00000000	          0.00000000	          0.00000000	          0.00000000	          0.00000000	        -38.97912842	        233.86215574	         -7.45196237	         -0.45579256	          0.00000000	         -0.04596891	          0.00000000	          0.00000000	          0.00000000	          0.00000000	          0.30256030	          0.00000000	
          1.07800000	          0.00000000	          0.00000000	          0.00000000	          0.00000000	          0.00000000	          0.00000000	        -38.02445259	        246.52498165	         -9.46096443	         -0.45520338	          0.00000000	         -0.04572061	          0.00000000	          0.00000000	          0.00000000	          0.00000000	          0.33111208	          0.00000000	
          1.07900000	          0.00000000	          0.00000000	          0.00000000	          0.00000000	          0.00000000	          0.00000000	        -36.71230687	        253.98923368	        -11.74422728	         -0.45463775	          0.00000000	         -0.04558969	          0.00000000	          0.00000000	          0.00000000	          0.00000000	          0.36075045	          0.00000000	
          1.08000000	          0.00000000	          0.00000000	          0.00000000	          0.00000000	          0.00000000	          0.00000000	        -35.26497979	        256.93212469	        -14.13769804	         -0.45418101	          0.00000000	         -0.04566614	          0.00000000	          0.00000000	          0.00000000	          0.00000000	          0.37850858	          0.00000000	
          1.08100000	          0.00000000	          0.00000000	          0.00000000	          0.00000000	          0.00000000	          0.00000000	        -33.82144552	        256.45333048	        -16.46090535	         -0.45385050	          0.00000000	         -0.04594802	          0.00000000	          0.00000000	          0.00000000	          0.00000000	          0.38121882	          0.00000000	
          1.08200000	          0.00000000	          0.00000000	          0.00000000	          0.00000000	          0.00000000	          0.00000000	        -32.44779532	        253.88688921	        -18.55209226	         -0.45358289	          0.00000000	         -0.04636459	          0.00000000	          0.00000000	          0.00000000	          0.00000000	          0.36912053	          0.00000000	
          1.08300000	          0.00000000	          0.00000000	          0.00000000	          0.00000000	          0.00000000	          0.00000000	        -31.16340089	        250.51963502	        -20.29749567	         -0.45330744	          0.00000000	         -0.04681958	          0.00000000	          0.00000000	          0.00000000	          0.00000000	          0.34234610	          0.00000000	
          1.08400000	          0.00000000	          0.00000000	          0.00000000	          0.00000000	          0.00000000	          0.00000000	        -29.97156638	        247.34559357	        -21.65380741	         -0.45300314	          0.00000000	         -0.04719368	          0.00000000	          0.00000000	          0.00000000	          0.00000000	          0.30729228	          0.00000000	
          1.08500000	          0.00000000	          0.00000000	          0.00000000	          0.00000000	          0.00000000	          0.00000000	        -28.87313561	        245.00834875	        -22.65229796	         -0.45266295	          0.00000000	         -0.04737031	          0.00000000	          0.00000000	          0.00000000	          0.00000000	          0.27611156	          0.00000000	
